<svg xmlns="http://www.w3.org/2000/svg" width="143" height="136" viewBox="0 0 143 136"><rect width="100%" height="100%" fill="#DDDDDD"/><path fill="#999999" d="M35.37 73.11h2.47v1.76h-7.6v-1.76h2.78V65.1q0-.47.03-.97l-1.98 1.65q-.17.13-.34.16-.16.04-.31.01t-.26-.1q-.11-.07-.17-.16l-.74-1.01 4.19-3.57h1.93v12Zm6.24-3.42h4.18V65.2q0-.64.08-1.41l-4.26 5.9Zm6.22 0h1.73v1.36q0 .19-.13.33-.12.14-.35.14h-1.25v3.35h-2.04v-3.35h-5.8q-.24 0-.42-.15t-.22-.37l-.25-1.18 6.51-8.7h2.22v8.57Zm4.47-4.51-1.23-.22q.14-.99.55-1.73.41-.75 1.02-1.25.61-.5 1.41-.75.79-.25 1.7-.25.95 0 1.72.27.76.27 1.3.75t.83 1.13q.29.64.29 1.39 0 .66-.14 1.16-.15.5-.43.87-.27.37-.68.63-.41.25-.92.42 1.23.39 1.84 1.19.61.8.61 2 0 1.03-.38 1.82t-1.03 1.32q-.64.54-1.49.82-.85.27-1.8.27-1.04 0-1.81-.24-.77-.23-1.34-.7-.57-.46-.97-1.14-.4-.67-.68-1.56l1.04-.42q.4-.17.76-.09.36.08.52.38.17.33.37.66.21.32.49.57.29.25.67.41.39.16.92.16.6 0 1.04-.2.45-.19.75-.51.3-.31.45-.7.14-.38.14-.77 0-.49-.1-.9-.11-.4-.44-.69-.33-.28-.95-.44-.63-.16-1.67-.16V67q.86-.01 1.43-.16t.91-.42q.34-.27.47-.65.13-.38.13-.84 0-.97-.54-1.47t-1.44-.5q-.42 0-.77.12-.35.11-.63.33-.28.21-.47.5-.19.28-.29.62-.16.44-.42.58-.26.15-.74.07Zm23.37 6.55-1.24 1.22-3.22-3.22-3.25 3.24-1.24-1.23 3.24-3.25-3.09-3.1 1.23-1.24 3.1 3.1 3.08-3.08 1.25 1.24-3.09 3.09 3.23 3.23Zm13.01 1.38h2.47v1.76h-7.6v-1.76h2.78V65.1q0-.47.03-.97l-1.97 1.65q-.18.13-.34.16-.17.04-.32.01-.14-.03-.26-.1-.11-.07-.17-.16l-.74-1.01 4.19-3.57h1.93v12Zm5.92-7.93-1.24-.22q.15-.99.55-1.73.41-.75 1.03-1.25.61-.5 1.4-.75.79-.25 1.71-.25.95 0 1.71.27.77.27 1.31.75t.83 1.13q.29.64.29 1.39 0 .66-.15 1.16-.15.5-.42.87-.28.37-.69.63-.4.25-.92.42 1.24.39 1.85 1.19.6.8.6 2 0 1.03-.38 1.82t-1.02 1.32q-.65.54-1.5.82-.85.27-1.8.27-1.03 0-1.8-.24-.77-.23-1.34-.7-.57-.46-.97-1.14-.4-.67-.69-1.56l1.04-.42q.41-.17.76-.09.36.08.52.38.17.33.38.66.2.32.49.57.28.25.67.41.38.16.91.16.6 0 1.05-.2.44-.19.74-.51.3-.31.45-.7.15-.38.15-.77 0-.49-.11-.9-.1-.4-.43-.69-.34-.28-.96-.44-.62-.16-1.67-.16V67q.87-.01 1.44-.16t.91-.42q.33-.27.47-.65.13-.38.13-.84 0-.97-.54-1.47t-1.45-.5q-.41 0-.77.12-.35.11-.63.33-.28.21-.47.5-.19.28-.28.62-.16.44-.43.58-.26.15-.73.07Zm17.79-4.05-4.07 4.99-.48.59q.4-.2.86-.31.46-.11.99-.11.78 0 1.52.26.74.25 1.3.77t.9 1.29q.34.77.34 1.8 0 .95-.35 1.8-.35.84-.99 1.46-.64.63-1.53.99-.9.36-1.98.36-1.11 0-1.98-.35-.87-.35-1.49-.98t-.95-1.52q-.32-.89-.32-1.97 0-.97.39-1.99.39-1.03 1.22-2.13l3.28-4.4q.17-.22.5-.39.32-.16.75-.16h2.09Zm-3.54 11.97q.56 0 1.03-.19t.81-.53q.33-.34.52-.8t.19-1q0-.59-.18-1.06-.18-.47-.51-.8-.33-.33-.8-.5-.46-.17-1.02-.17t-1.02.19q-.46.19-.78.53-.32.33-.5.79-.18.47-.18 1 0 .57.15 1.04.16.47.47.8.31.33.76.52.46.18 1.06.18Z"/></svg>