<svg xmlns="http://www.w3.org/2000/svg" width="145" height="61" viewBox="0 0 145 61"><rect width="100%" height="100%" fill="#DDDDDD"/><path fill="#999999" d="M37.37 36.345h2.86v2.03h-8.8v-2.03h3.22v-9.28q0-.55.03-1.13l-2.28 1.91q-.2.16-.39.2-.2.03-.37 0-.17-.03-.3-.11-.13-.09-.2-.19l-.86-1.17 4.86-4.13h2.23v13.9Zm7.23-3.96h4.84v-5.21q0-.73.09-1.63l-4.93 6.84Zm7.2 0h2v1.57q0 .22-.14.38t-.41.16H51.8v3.88h-2.36v-3.88h-6.71q-.28 0-.49-.17-.21-.17-.26-.43l-.29-1.37 7.54-10.07h2.57v9.93Zm7.59-7.45-.56 3.31q.53-.11 1.01-.16.49-.05.94-.05 1.25 0 2.21.37.95.38 1.6 1.04.65.66.98 1.54.33.89.33 1.91 0 1.27-.44 2.31-.45 1.05-1.24 1.79t-1.88 1.15q-1.08.41-2.36.41-.74 0-1.41-.16-.68-.15-1.26-.41-.59-.26-1.09-.59-.5-.34-.9-.71l.84-1.16q.26-.37.69-.37.27 0 .56.17.29.18.66.39.36.21.86.38.5.18 1.21.18.75 0 1.32-.24.57-.24.95-.68.38-.43.57-1.03.19-.6.19-1.31 0-1.29-.75-2.03-.75-.73-2.23-.73-1.13 0-2.32.42l-1.69-.48 1.32-7.73h7.85v1.16q0 .58-.36.95-.36.36-1.23.36h-4.37Zm24.65 9.8-1.44 1.42-3.73-3.73-3.76 3.75-1.44-1.42 3.76-3.77-3.59-3.59 1.43-1.43 3.59 3.59 3.56-3.57 1.46 1.43-3.58 3.58 3.74 3.74Zm17-12.27-4.72 5.78-.55.68q.46-.23.99-.36.54-.12 1.15-.12.9 0 1.76.29.85.3 1.5.9.65.6 1.04 1.49.4.89.4 2.08 0 1.11-.41 2.08-.4.98-1.14 1.7-.74.73-1.78 1.15-1.04.42-2.29.42-1.28 0-2.29-.41t-1.73-1.14q-.71-.73-1.09-1.76-.38-1.03-.38-2.28 0-1.12.46-2.31.45-1.18 1.41-2.45l3.79-5.1q.2-.26.58-.45.38-.19.88-.19h2.42Zm-4.11 13.86q.65 0 1.2-.22.54-.22.93-.61.39-.4.61-.93.22-.53.22-1.16 0-.68-.21-1.23-.21-.54-.59-.92-.39-.38-.92-.58-.54-.2-1.19-.2-.65 0-1.18.22-.53.22-.9.61-.38.39-.58.93-.21.53-.21 1.15 0 .66.18 1.2.18.55.54.93.35.39.88.6.53.21 1.22.21Zm14.93.02h2.86v2.03h-8.8v-2.03h3.22v-9.28q0-.55.04-1.13l-2.29 1.91q-.2.16-.39.2-.19.03-.36 0-.18-.03-.31-.11-.13-.09-.2-.19l-.85-1.17 4.85-4.13h2.23v13.9Z"/></svg>