<svg xmlns="http://www.w3.org/2000/svg" width="1528" height="716" viewBox="0 0 1528 716"><rect width="100%" height="100%" fill="#DDDDDD"/><path fill="#999999" d="M371.68 406.15h23.27v16.56h-71.6v-16.56h26.22V330.7q0-4.47.27-9.21l-18.62 15.57q-1.61 1.25-3.18 1.56-1.56.32-2.95.05-1.39-.27-2.46-.94-1.07-.67-1.61-1.48l-6.98-9.57 39.47-33.57h18.17v113.04Zm75.35-92.81-4.56 26.94q4.3-.89 8.23-1.3 3.94-.4 7.61-.4 10.2 0 17.99 3.04 7.79 3.05 13.07 8.42t7.96 12.57q2.69 7.21 2.69 15.53 0 10.29-3.63 18.79-3.62 8.51-10.06 14.55-6.45 6.04-15.26 9.35-8.82 3.31-19.2 3.31-6.09 0-11.55-1.25-5.46-1.25-10.25-3.36-4.78-2.1-8.86-4.83-4.07-2.73-7.29-5.77l6.8-9.4q2.15-3.04 5.64-3.04 2.24 0 4.56 1.43 2.33 1.43 5.33 3.13t7.07 3.13q4.07 1.44 9.8 1.44 6.09 0 10.74-1.97t7.74-5.51q3.09-3.53 4.66-8.41 1.56-4.88 1.56-10.61 0-10.56-6.13-16.51-6.13-5.95-18.12-5.95-9.22 0-18.89 3.4l-13.78-3.94 10.74-62.83h63.9v9.4q0 4.74-2.95 7.7-2.95 2.95-10.02 2.95h-35.54Zm117.52 88.78h33.2q3.58 0 5.69 2.02 2.1 2.01 2.1 5.32v13.25h-88.78v-7.34q0-2.24.93-4.7.94-2.46 3-4.43l39.29-39.38q4.93-5.01 8.82-9.57 3.89-4.57 6.49-9.04 2.59-4.48 3.98-9.09 1.39-4.61 1.39-9.71 0-4.65-1.34-8.19-1.35-3.53-3.81-5.95-2.46-2.42-5.91-3.62-3.44-1.21-7.74-1.21-3.93 0-7.29 1.12-3.36 1.11-5.95 3.13-2.6 2.01-4.39 4.7-1.79 2.68-2.68 5.9-1.52 4.12-3.94 5.46-2.42 1.35-6.98.63l-11.64-2.06q1.35-9.31 5.19-16.33 3.85-7.03 9.62-11.73 5.78-4.7 13.25-7.07t16.07-2.37q8.95 0 16.37 2.64 7.43 2.64 12.71 7.47 5.28 4.84 8.24 11.64 2.95 6.8 2.95 15.13 0 7.16-2.1 13.24-2.11 6.09-5.64 11.64-3.54 5.55-8.28 10.74-4.74 5.19-9.93 10.56l-29.18 29.8q4.21-1.25 8.37-1.92 4.16-.68 7.92-.68Zm101.13 4.75q5.46 0 9.58-1.57 4.12-1.56 6.94-4.34 2.82-2.77 4.25-6.62 1.43-3.85 1.43-8.33 0-10.65-5.91-16.1-5.9-5.46-16.29-5.46-10.38 0-16.29 5.46-5.9 5.45-5.9 16.1 0 4.48 1.43 8.33 1.43 3.85 4.25 6.62 2.82 2.78 6.94 4.34 4.11 1.57 9.57 1.57Zm0-98.36q-4.92 0-8.5 1.52t-5.95 4.07q-2.37 2.55-3.49 5.86-1.12 3.32-1.12 6.98 0 3.85.94 7.48.94 3.62 3.18 6.44 2.23 2.82 5.9 4.52 3.67 1.7 9.04 1.7 5.37 0 9.04-1.7 3.67-1.7 5.91-4.52 2.24-2.82 3.18-6.44.94-3.63.94-7.48 0-3.66-1.17-6.98-1.16-3.31-3.49-5.86-2.32-2.55-5.9-4.07-3.58-1.52-8.51-1.52Zm21.84 46.72q11.82 3.85 17.45 11.77 5.64 7.92 5.64 19.37 0 8.6-3.26 15.58-3.27 6.98-9.18 11.9t-14.18 7.61q-8.28 2.68-18.31 2.68-10.02 0-18.3-2.68-8.28-2.69-14.19-7.61-5.9-4.92-9.17-11.9-3.27-6.98-3.27-15.58 0-11.45 5.64-19.37 5.64-7.92 17.46-11.77-9.4-3.94-14.1-11.19-4.7-7.25-4.7-17.45 0-7.34 3-13.7 3-6.35 8.37-11.05 5.37-4.7 12.84-7.34 7.47-2.64 16.42-2.64 8.95 0 16.43 2.64 7.47 2.64 12.84 7.34 5.37 4.7 8.37 11.05 3 6.36 3 13.7 0 10.2-4.7 17.45t-14.1 11.19Zm167.72 37.86-11.72 11.54-30.34-30.34-30.61 30.52-11.72-11.55 30.6-30.69-29.17-29.18 11.63-11.64 29.18 29.18 29-29 11.81 11.64-29.09 29.09 30.43 30.43Zm61.49-99.8h89.41v9.58q0 4.3-.89 6.94-.9 2.64-1.79 4.43l-49.05 100.95q-1.52 3.13-4.3 5.33-2.77 2.19-7.42 2.19h-16.02l50.03-98.9q1.7-3.04 3.35-5.59 1.66-2.55 3.72-4.88h-61.94q-2.06 0-3.58-1.52t-1.52-3.58v-14.95Zm164.86 112.86h23.27v16.56h-71.6v-16.56h26.22V330.7q0-4.47.27-9.21l-18.61 15.57q-1.62 1.25-3.18 1.56-1.57.32-2.96.05-1.38-.27-2.46-.94-1.07-.67-1.61-1.48l-6.98-9.57 39.47-33.57h18.17v113.04Zm119.57-112.86-38.39 46.99-4.48 5.55q3.76-1.88 8.1-2.91 4.34-1.03 9.35-1.03 7.34 0 14.28 2.42 6.94 2.41 12.22 7.29t8.5 12.13q3.22 7.25 3.22 16.92 0 9.03-3.31 16.96-3.31 7.92-9.31 13.82-6 5.91-14.45 9.31-8.46 3.4-18.66 3.4-10.39 0-18.62-3.31t-14.05-9.26q-5.82-5.95-8.91-14.32-3.09-8.37-3.09-18.57 0-9.13 3.72-18.75 3.71-9.63 11.5-20.01l30.88-41.44q1.61-2.14 4.7-3.67 3.08-1.52 7.11-1.52h19.69Zm-33.38 112.77q5.28 0 9.71-1.79 4.43-1.79 7.61-5.01 3.17-3.22 4.96-7.56t1.79-9.44q0-5.55-1.7-9.98-1.7-4.43-4.83-7.52t-7.52-4.7q-4.38-1.61-9.66-1.61t-9.58 1.79q-4.3 1.79-7.34 4.97-3.04 3.17-4.74 7.51-1.7 4.35-1.7 9.36 0 5.37 1.47 9.8 1.48 4.43 4.39 7.56 2.91 3.13 7.2 4.88 4.3 1.74 9.94 1.74Z"/></svg>