<svg xmlns="http://www.w3.org/2000/svg" width="200" height="62" viewBox="0 0 200 62"><rect width="100%" height="100%" fill="#DDDDDD"/><path fill="#999999" d="M48.105 38.645h5.75q.62 0 .99.34.36.35.36.93v2.29h-15.38v-1.27q0-.39.17-.81.16-.43.52-.77l6.8-6.82q.85-.87 1.53-1.66.67-.79 1.12-1.57.45-.77.69-1.57.24-.8.24-1.68 0-.81-.23-1.42-.23-.61-.66-1.03-.43-.42-1.02-.63-.6-.21-1.34-.21-.69 0-1.27.2-.58.19-1.03.54-.45.35-.76.81-.31.47-.46 1.03-.27.71-.68.94-.42.23-1.21.11l-2.02-.36q.23-1.61.9-2.83.67-1.21 1.67-2.03 1-.81 2.29-1.22 1.3-.41 2.78-.41 1.55 0 2.84.46 1.29.45 2.2 1.29.92.84 1.43 2.02.51 1.17.51 2.62 0 1.23-.37 2.29-.36 1.05-.97 2.01-.61.96-1.44 1.86-.82.9-1.72 1.83l-5.05 5.16q.73-.21 1.45-.33.72-.11 1.37-.11Zm25.73-7.65q0 2.93-.63 5.1-.62 2.16-1.73 3.57-1.11 1.41-2.62 2.1-1.51.69-3.26.69-1.76 0-3.25-.69-1.5-.69-2.6-2.1-1.1-1.41-1.72-3.57-.62-2.17-.62-5.1 0-2.94.62-5.1.62-2.15 1.72-3.56 1.1-1.41 2.6-2.1 1.49-.69 3.25-.69 1.75 0 3.26.69 1.51.69 2.62 2.1 1.11 1.41 1.73 3.56.63 2.16.63 5.1Zm-3.95 0q0-2.43-.36-4.03-.35-1.59-.95-2.54-.6-.94-1.37-1.32-.78-.38-1.61-.38-.83 0-1.59.38-.77.38-1.36 1.32-.59.95-.94 2.54-.35 1.6-.35 4.03 0 2.44.35 4.03.35 1.6.94 2.55.59.94 1.36 1.32.76.38 1.59.38.83 0 1.61-.38.77-.38 1.37-1.32.6-.95.95-2.55.36-1.59.36-4.03Zm21.93 0q0 2.93-.63 5.1-.62 2.16-1.73 3.57-1.11 1.41-2.62 2.1-1.51.69-3.26.69-1.76 0-3.25-.69-1.5-.69-2.6-2.1-1.1-1.41-1.72-3.57-.62-2.17-.62-5.1 0-2.94.62-5.1.62-2.15 1.72-3.56 1.1-1.41 2.6-2.1 1.49-.69 3.25-.69 1.75 0 3.26.69 1.51.69 2.62 2.1 1.11 1.41 1.73 3.56.63 2.16.63 5.1Zm-3.95 0q0-2.43-.36-4.03-.35-1.59-.95-2.54-.6-.94-1.37-1.32-.78-.38-1.61-.38-.83 0-1.59.38-.77.38-1.36 1.32-.59.95-.94 2.54-.35 1.6-.35 4.03 0 2.44.35 4.03.35 1.6.94 2.55.59.94 1.36 1.32.76.38 1.59.38.83 0 1.61-.38.77-.38 1.37-1.32.6-.95.95-2.55.36-1.59.36-4.03Zm28.57 6.08-2.03 2-5.26-5.26-5.3 5.29-2.03-2 5.3-5.32-5.05-5.05 2.01-2.01 5.06 5.05 5.02-5.02 2.04 2.01-5.03 5.04 5.27 5.27Zm23.94-17.28-6.65 8.13-.77.97q.65-.33 1.4-.51.75-.18 1.62-.18 1.27 0 2.47.42 1.2.42 2.12 1.27.91.84 1.47 2.1.56 1.25.56 2.92 0 1.57-.57 2.94-.58 1.37-1.62 2.4-1.03 1.02-2.5 1.61-1.46.59-3.23.59-1.8 0-3.22-.58-1.43-.57-2.44-1.6-1.01-1.03-1.54-2.48-.54-1.45-.54-3.22 0-1.58.65-3.24.64-1.67 1.99-3.47l5.35-7.17q.28-.38.81-.64.54-.26 1.23-.26h3.41Zm-5.78 19.53q.92 0 1.68-.31.77-.31 1.32-.87t.86-1.31q.31-.75.31-1.64 0-.96-.29-1.72-.3-.77-.84-1.31-.54-.53-1.3-.81t-1.68-.28q-.91 0-1.65.31-.75.31-1.28.86-.52.55-.82 1.3-.29.75-.29 1.62 0 .93.25 1.7.26.77.76 1.31.51.54 1.25.84.75.31 1.72.31Zm18.48-.68h5.75q.62 0 .98.34.37.35.37.93v2.29h-15.38v-1.27q0-.39.16-.81.17-.43.52-.77l6.81-6.82q.85-.87 1.52-1.66.68-.79 1.13-1.57.45-.77.69-1.57.24-.8.24-1.68 0-.81-.23-1.42-.24-.61-.66-1.03-.43-.42-1.03-.63-.59-.21-1.34-.21-.68 0-1.26.2-.58.19-1.03.54-.45.35-.76.81-.31.47-.47 1.03-.26.71-.68.94-.42.23-1.21.11l-2.01-.36q.23-1.61.9-2.83.66-1.21 1.66-2.03 1-.81 2.3-1.22 1.29-.41 2.78-.41 1.55 0 2.84.46 1.28.45 2.2 1.29.91.84 1.42 2.02.51 1.17.51 2.62 0 1.23-.36 2.29-.36 1.05-.98 2.01-.61.96-1.43 1.86-.82.9-1.72 1.83l-5.05 5.16q.73-.21 1.45-.33.72-.11 1.37-.11Z"/></svg>