<svg xmlns="http://www.w3.org/2000/svg" width="60" height="59" viewBox="0 0 60 59"><rect width="100%" height="100%" fill="#DDDDDD"/><path fill="#999999" d="m16.66 25.525-2.36 2.88-.28.35q.23-.12.5-.18.27-.07.58-.07.45 0 .87.15.43.15.75.45.33.3.53.75.19.44.19 1.04 0 .55-.2 1.04-.2.48-.57.85-.37.36-.89.57-.52.21-1.15.21-.63 0-1.14-.21-.51-.2-.86-.56-.36-.37-.55-.88-.19-.52-.19-1.15 0-.56.23-1.15.23-.59.7-1.23l1.9-2.54q.1-.14.29-.23.19-.09.44-.09h1.21Zm-2.05 6.93q.32 0 .59-.11.28-.11.47-.31.2-.2.31-.47.11-.26.11-.58 0-.34-.11-.61-.1-.27-.3-.46-.19-.19-.46-.29-.27-.1-.59-.1-.33 0-.59.11-.26.11-.45.31-.19.19-.29.46-.11.27-.11.57 0 .33.09.61.09.27.27.46.18.19.45.3.26.11.61.11Zm9.3-2.96q0 1.04-.22 1.81t-.62 1.27q-.39.5-.93.74-.53.25-1.15.25-.63 0-1.16-.25-.53-.24-.92-.74t-.61-1.27q-.22-.77-.22-1.81t.22-1.81q.22-.76.61-1.26t.92-.75q.53-.24 1.16-.24.62 0 1.15.24.54.25.93.75.4.5.62 1.26.22.77.22 1.81Zm-1.4 0q0-.86-.13-1.43-.12-.56-.34-.9-.21-.33-.48-.47-.28-.13-.57-.13-.3 0-.57.13-.27.14-.48.47-.21.34-.33.9-.13.57-.13 1.43 0 .87.13 1.43.12.57.33.91.21.33.48.47.27.13.57.13.29 0 .57-.13.27-.14.48-.47.22-.34.34-.91.13-.56.13-1.43Zm10.14 2.16-.72.71-1.87-1.87-1.88 1.88-.72-.71 1.88-1.89-1.79-1.79.71-.71 1.8 1.79 1.78-1.78.72.71-1.78 1.79 1.87 1.87Zm5.78-4.9-.28 1.65q.26-.05.5-.08.24-.02.47-.02.63 0 1.11.19.47.18.8.51.32.33.49.78.16.44.16.95 0 .63-.22 1.16-.22.52-.62.89-.39.37-.94.57-.54.21-1.18.21-.37 0-.71-.08-.33-.08-.63-.21-.29-.12-.54-.29-.25-.17-.45-.36l.42-.57q.13-.19.35-.19.13 0 .28.09.14.08.32.19.19.1.44.19t.6.09q.37 0 .66-.12.29-.12.48-.34.19-.22.28-.52.1-.3.1-.65 0-.65-.38-1.01-.37-.37-1.11-.37-.57 0-1.16.21l-.85-.24.66-3.86h3.93v.57q0 .3-.18.48-.19.18-.62.18h-2.18Zm5.68 1.15q0 .67.34 1.02.35.35.98.35.33 0 .59-.11.26-.1.43-.28.18-.18.27-.43.09-.25.09-.53 0-.33-.1-.59-.1-.25-.28-.43-.18-.17-.43-.27-.25-.09-.55-.09-.31 0-.56.1-.24.1-.42.29-.17.18-.27.43-.09.25-.09.54Zm-.67 5.57 2.47-3.09q.1-.11.18-.22l.16-.22q-.28.18-.61.27-.33.09-.69.09-.41 0-.81-.15-.39-.14-.7-.43-.31-.29-.5-.71-.19-.43-.19-1 0-.53.2-1t.55-.82q.36-.35.86-.56.5-.2 1.11-.2.61 0 1.09.19.49.19.83.54.35.35.53.83.19.49.19 1.06 0 .37-.07.7-.06.33-.18.64-.11.3-.28.59-.16.29-.36.58l-1.82 2.6q-.1.13-.29.22-.18.09-.42.09h-1.25Z"/></svg>