<svg xmlns="http://www.w3.org/2000/svg" width="694" height="390" viewBox="0 0 694 390"><rect width="100%" height="100%" fill="#DDDDDD"/><path fill="#999999" d="m180.845 161.735-19.73 24.15-2.3 2.86q1.93-.97 4.16-1.5 2.23-.53 4.81-.53 3.77 0 7.33 1.24 3.57 1.25 6.28 3.75 2.72 2.51 4.37 6.24 1.66 3.72 1.66 8.69 0 4.65-1.7 8.72-1.71 4.07-4.79 7.1-3.08 3.04-7.43 4.79-4.34 1.75-9.59 1.75-5.33 0-9.57-1.71-4.23-1.7-7.22-4.76-2.99-3.06-4.58-7.36-1.58-4.3-1.58-9.54 0-4.69 1.91-9.64 1.91-4.94 5.91-10.28l15.87-21.3q.83-1.1 2.41-1.88 1.59-.79 3.66-.79h10.12Zm-17.16 57.96q2.72 0 4.99-.92 2.28-.92 3.91-2.57 1.64-1.66 2.56-3.89.92-2.23.92-4.85 0-2.85-.88-5.13-.87-2.28-2.48-3.87-1.61-1.58-3.87-2.41-2.25-.83-4.96-.83-2.72 0-4.93.92-2.2.92-3.77 2.56-1.56 1.63-2.44 3.86-.87 2.23-.87 4.81 0 2.76.76 5.03.76 2.28 2.25 3.89 1.5 1.61 3.71 2.51 2.2.89 5.1.89Zm41.95-37.99q0 5.56 2.88 8.49 2.87 2.92 8.16 2.92 2.76 0 4.93-.88 2.16-.87 3.63-2.39 1.47-1.52 2.23-3.59t.76-4.46q0-2.71-.83-4.85-.83-2.14-2.34-3.61-1.52-1.48-3.62-2.26-2.09-.78-4.57-.78-2.58 0-4.65.85-2.07.85-3.54 2.37-1.47 1.52-2.25 3.61-.79 2.09-.79 4.58Zm-5.56 46.55 20.65-25.81q.78-.96 1.47-1.88.69-.92 1.34-1.84-2.3 1.47-5.06 2.23t-5.8.76q-3.45 0-6.76-1.2-3.31-1.19-5.89-3.61-2.57-2.41-4.16-5.98-1.59-3.56-1.59-8.35 0-4.46 1.66-8.37 1.65-3.91 4.64-6.85 2.99-2.95 7.18-4.65 4.19-1.7 9.25-1.7 5.1 0 9.17 1.61t6.95 4.51q2.87 2.89 4.41 6.94 1.55 4.05 1.55 8.88 0 3.08-.53 5.84t-1.5 5.31q-.96 2.56-2.34 5-1.38 2.43-3.09 4.83l-15.22 21.71q-.78 1.1-2.35 1.86-1.56.76-3.54.76h-10.44Zm56.26-25.07h20.24v-21.76q0-3.08.41-6.81l-20.65 28.57Zm30.13 0h8.37v6.58q0 .92-.6 1.58-.6.67-1.7.67h-6.07v16.24h-9.89v-16.24h-28.06q-1.15 0-2.03-.71-.87-.71-1.1-1.77l-1.2-5.75 31.51-42.09h10.77v41.49Zm81.46 9.84-6.02 5.94-15.6-15.6-15.73 15.69-6.03-5.93 15.74-15.78-15-15 5.98-5.98 15 15 14.9-14.91 6.07 5.98-14.95 14.95 15.64 15.64Zm38.27-31.69-5.98-1.06q.69-4.78 2.67-8.39 1.98-3.61 4.95-6.03 2.96-2.41 6.8-3.63 3.85-1.22 8.26-1.22 4.6 0 8.3 1.31 3.71 1.31 6.33 3.63 2.62 2.33 4.02 5.45 1.41 3.13 1.41 6.77 0 3.17-.72 5.58-.71 2.42-2.04 4.21-1.34 1.8-3.31 3.04-1.98 1.24-4.47 2.07 5.98 1.89 8.93 5.75 2.94 3.86 2.94 9.71 0 4.96-1.84 8.78-1.84 3.82-4.97 6.42-3.12 2.6-7.24 3.93-4.12 1.34-8.72 1.34-5.01 0-8.74-1.15-3.72-1.15-6.48-3.41-2.76-2.25-4.7-5.52-1.93-3.26-3.31-7.54l5.02-2.07q1.97-.83 3.7-.44 1.72.39 2.51 1.86.82 1.61 1.81 3.18.99 1.56 2.37 2.78 1.38 1.22 3.24 1.98 1.87.76 4.44.76 2.9 0 5.06-.95 2.17-.94 3.61-2.46 1.45-1.51 2.17-3.38.71-1.86.71-3.75 0-2.39-.51-4.34-.5-1.96-2.11-3.34-1.61-1.38-4.63-2.16-3.01-.78-8.07-.78v-8.1q4.19-.04 6.95-.78t4.39-2.05q1.63-1.31 2.28-3.15.64-1.84.64-4.05 0-4.69-2.62-7.13-2.62-2.43-6.99-2.43-2.03 0-3.73.57-1.7.58-3.06 1.61-1.35 1.04-2.27 2.42-.92 1.38-1.38 3.03-.79 2.12-2.05 2.81-1.27.69-3.57.32Zm57.6.37q0 5.56 2.87 8.49 2.88 2.92 8.17 2.92 2.76 0 4.92-.88 2.16-.87 3.63-2.39 1.47-1.52 2.23-3.59t.76-4.46q0-2.71-.83-4.85-.82-2.14-2.34-3.61-1.52-1.48-3.61-2.26-2.1-.78-4.58-.78-2.58 0-4.65.85-2.07.85-3.54 2.37-1.47 1.52-2.25 3.61t-.78 4.58Zm-5.57 46.55 20.65-25.81q.79-.96 1.48-1.88.69-.92 1.33-1.84-2.3 1.47-5.06 2.23t-5.8.76q-3.45 0-6.76-1.2-3.31-1.19-5.89-3.61-2.57-2.41-4.16-5.98-1.59-3.56-1.59-8.35 0-4.46 1.66-8.37 1.66-3.91 4.65-6.85 2.99-2.95 7.17-4.65 4.19-1.7 9.25-1.7 5.1 0 9.17 1.61 4.08 1.61 6.95 4.51 2.88 2.89 4.42 6.94 1.54 4.05 1.54 8.88 0 3.08-.53 5.84t-1.5 5.31q-.96 2.56-2.34 5-1.38 2.43-3.08 4.83l-15.23 21.71q-.78 1.1-2.35 1.86-1.56.76-3.54.76h-10.44Zm94.81-33.26q0 8.7-1.87 15.11-1.86 6.42-5.15 10.61-3.29 4.18-7.77 6.23-4.49 2.05-9.69 2.05-5.19 0-9.63-2.05t-7.71-6.23q-3.26-4.19-5.1-10.61-1.84-6.41-1.84-15.11 0-8.74 1.84-15.13 1.84-6.4 5.1-10.58 3.27-4.19 7.71-6.23 4.44-2.05 9.63-2.05 5.2 0 9.69 2.05 4.48 2.04 7.77 6.23 3.29 4.18 5.15 10.58 1.87 6.39 1.87 15.13Zm-11.73 0q0-7.22-1.06-11.96-1.06-4.74-2.83-7.54-1.77-2.81-4.07-3.94-2.3-1.12-4.79-1.12-2.43 0-4.71 1.12-2.28 1.13-4.03 3.94-1.74 2.8-2.78 7.54-1.03 4.74-1.03 11.96 0 7.22 1.03 11.96 1.04 4.74 2.78 7.55 1.75 2.8 4.03 3.93 2.28 1.13 4.71 1.13 2.49 0 4.79-1.13t4.07-3.93q1.77-2.81 2.83-7.55t1.06-11.96Z"/></svg>