<svg xmlns="http://www.w3.org/2000/svg" width="760" height="760" viewBox="0 0 760 760"><rect width="100%" height="100%" fill="#DDDDDD"/><path fill="#999999" d="M154.035 343.49h50.45v5.4q0 2.42-.5 3.91-.51 1.49-1.01 2.5l-27.68 56.97q-.85 1.77-2.42 3-1.57 1.24-4.19 1.24h-9.04l28.23-55.8q.96-1.72 1.89-3.16.94-1.44 2.1-2.75h-34.95q-1.16 0-2.02-.86-.86-.86-.86-2.02v-8.43Zm101.91 0L234.285 370l-2.53 3.13q2.12-1.06 4.57-1.64 2.45-.58 5.28-.58 4.14 0 8.06 1.36 3.91 1.37 6.89 4.12 2.98 2.75 4.8 6.84 1.81 4.09 1.81 9.54 0 5.11-1.86 9.57-1.87 4.47-5.26 7.81-3.38 3.33-8.15 5.25-4.77 1.92-10.53 1.92-5.86 0-10.51-1.87-4.64-1.87-7.92-5.23-3.29-3.36-5.03-8.08-1.74-4.72-1.74-10.48 0-5.15 2.09-10.58 2.1-5.42 6.49-11.28l17.43-23.38q.91-1.22 2.65-2.07 1.74-.86 4.01-.86h11.11Zm-18.83 63.63q2.98 0 5.48-1.01 2.5-1.01 4.29-2.83t2.8-4.27q1.01-2.45 1.01-5.33 0-3.13-.96-5.63t-2.73-4.24q-1.76-1.74-4.24-2.65-2.47-.91-5.45-.91t-5.41 1.01q-2.42 1.01-4.14 2.8-1.71 1.8-2.67 4.25-.96 2.44-.96 5.27 0 3.03.83 5.53.83 2.5 2.48 4.27 1.64 1.77 4.06 2.75 2.42.99 5.61.99Zm85.44-27.12q0 9.54-2.04 16.59-2.05 7.04-5.66 11.64-3.61 4.59-8.53 6.84-4.93 2.25-10.63 2.25-5.71 0-10.58-2.25-4.88-2.25-8.46-6.84-3.59-4.6-5.61-11.64-2.02-7.05-2.02-16.59 0-9.6 2.02-16.62 2.02-7.02 5.61-11.61 3.58-4.6 8.46-6.84 4.87-2.25 10.58-2.25 5.7 0 10.63 2.25 4.92 2.24 8.53 6.84 3.61 4.59 5.66 11.61 2.04 7.02 2.04 16.62Zm-12.88 0q0-7.93-1.16-13.13-1.16-5.2-3.1-8.28-1.95-3.08-4.47-4.32-2.53-1.24-5.25-1.24-2.68 0-5.18 1.24-2.5 1.24-4.42 4.32t-3.05 8.28q-1.14 5.2-1.14 13.13 0 7.93 1.14 13.13 1.13 5.2 3.05 8.28 1.92 3.08 4.42 4.32 2.5 1.24 5.18 1.24 2.72 0 5.25-1.24 2.52-1.24 4.47-4.32 1.94-3.08 3.1-8.28 1.16-5.2 1.16-13.13Zm93.08 19.79-6.62 6.52-17.12-17.12-17.27 17.22-6.62-6.51 17.28-17.33-16.47-16.46 6.57-6.56 16.46 16.46 16.36-16.36 6.67 6.56-16.41 16.41 17.17 17.17Zm34.69-56.3h50.45v5.4q0 2.42-.51 3.91-.5 1.49-1.01 2.5l-27.67 56.97q-.86 1.77-2.42 3-1.57 1.24-4.2 1.24h-9.03l28.22-55.8q.96-1.72 1.9-3.16.93-1.44 2.09-2.75h-34.94q-1.16 0-2.02-.86-.86-.86-.86-2.02v-8.43Zm101.91 0L517.685 370l-2.52 3.13q2.12-1.06 4.57-1.64 2.45-.58 5.28-.58 4.14 0 8.05 1.36 3.92 1.37 6.89 4.12 2.98 2.75 4.8 6.84 1.82 4.09 1.82 9.54 0 5.11-1.87 9.57-1.87 4.47-5.25 7.81-3.38 3.33-8.16 5.25-4.77 1.92-10.53 1.92-5.85 0-10.5-1.87t-7.93-5.23q-3.28-3.36-5.02-8.08-1.74-4.72-1.74-10.48 0-5.15 2.09-10.58 2.1-5.42 6.49-11.28l17.42-23.38q.91-1.22 2.65-2.07 1.75-.86 4.02-.86h11.11Zm-18.84 63.63q2.98 0 5.48-1.01 2.5-1.01 4.29-2.83 1.8-1.82 2.81-4.27 1.01-2.45 1.01-5.33 0-3.13-.96-5.63t-2.73-4.24q-1.77-1.74-4.24-2.65-2.48-.91-5.46-.91t-5.4 1.01q-2.42 1.01-4.14 2.8-1.72 1.8-2.68 4.25-.96 2.44-.96 5.27 0 3.03.84 5.53.83 2.5 2.47 4.27 1.64 1.77 4.07 2.75 2.42.99 5.6.99Zm85.45-27.12q0 9.54-2.05 16.59-2.04 7.04-5.65 11.64-3.61 4.59-8.54 6.84-4.92 2.25-10.63 2.25-5.7 0-10.58-2.25-4.87-2.25-8.46-6.84-3.58-4.6-5.6-11.64-2.02-7.05-2.02-16.59 0-9.6 2.02-16.62 2.02-7.02 5.6-11.61 3.59-4.6 8.46-6.84 4.88-2.25 10.58-2.25 5.71 0 10.63 2.25 4.93 2.24 8.54 6.84 3.61 4.59 5.65 11.61 2.05 7.02 2.05 16.62Zm-12.88 0q0-7.93-1.16-13.13-1.16-5.2-3.11-8.28-1.94-3.08-4.47-4.32-2.52-1.24-5.25-1.24-2.67 0-5.17 1.24t-4.42 4.32q-1.92 3.08-3.06 8.28-1.13 5.2-1.13 13.13 0 7.93 1.13 13.13 1.14 5.2 3.06 8.28 1.92 3.08 4.42 4.32 2.5 1.24 5.17 1.24 2.73 0 5.25-1.24 2.53-1.24 4.47-4.32 1.95-3.08 3.11-8.28 1.16-5.2 1.16-13.13Z"/></svg>