<svg xmlns="http://www.w3.org/2000/svg" width="77" height="30" viewBox="0 0 77 30"><rect width="100%" height="100%" fill="#DDDDDD"/><path fill="#999999" d="M15.3 9.94h6.99v.75q0 .33-.07.54-.07.21-.14.35l-3.83 7.89q-.12.25-.34.42-.22.17-.58.17h-1.25l3.91-7.74q.13-.23.26-.43.13-.2.29-.38H15.7q-.16 0-.28-.12-.12-.12-.12-.28V9.94Zm8.12 0h6.99v.75q0 .33-.07.54-.07.21-.14.35l-3.83 7.89q-.12.25-.34.42-.22.17-.58.17H24.2l3.91-7.74q.13-.23.26-.43.13-.2.29-.38h-4.84q-.16 0-.28-.12-.12-.12-.12-.28V9.94Zm18.23 7.8-.91.91-2.38-2.38-2.39 2.39-.92-.9 2.4-2.4-2.29-2.29.91-.91 2.29 2.29 2.26-2.27.93.91-2.28 2.27 2.38 2.38Zm5.83-4.82-.91-.16q.1-.73.4-1.28.3-.55.76-.92.45-.36 1.03-.55.59-.18 1.26-.18.7 0 1.26.2.57.19.96.55.4.35.62.83.21.47.21 1.03 0 .48-.11.85-.11.36-.31.64-.2.27-.5.46t-.68.31q.91.29 1.36.88.44.59.44 1.48 0 .75-.28 1.33-.28.59-.75.98-.48.4-1.1.6-.63.2-1.33.2-.76 0-1.33-.17-.57-.18-.99-.52-.42-.34-.71-.84-.3-.5-.51-1.15l.77-.31q.3-.13.56-.07.26.06.38.28.13.25.28.49.15.23.36.42.21.19.49.3.29.12.68.12.44 0 .77-.15.33-.14.55-.37.22-.23.33-.52.1-.28.1-.57 0-.36-.07-.66-.08-.3-.32-.51-.25-.21-.71-.33-.46-.11-1.23-.11v-1.24q.64 0 1.06-.12.42-.11.67-.31.25-.2.35-.48.09-.28.09-.61 0-.72-.4-1.09-.39-.37-1.06-.37-.31 0-.57.09-.26.09-.46.24-.21.16-.35.37-.14.21-.21.46-.12.33-.31.43-.19.11-.54.05ZM61.7 15q0 1.32-.28 2.3-.28.97-.79 1.61-.5.64-1.18.95-.68.31-1.47.31-.79 0-1.47-.31-.67-.31-1.17-.95-.5-.64-.78-1.61-.28-.98-.28-2.3 0-1.33.28-2.3.28-.98.78-1.61.5-.64 1.17-.95.68-.31 1.47-.31.79 0 1.47.31.68.31 1.18.95.51.63.79 1.61.28.97.28 2.3Zm-1.78 0q0-1.1-.16-1.82-.17-.72-.43-1.15-.27-.43-.62-.6-.35-.17-.73-.17-.37 0-.72.17t-.61.6q-.27.43-.43 1.15-.15.72-.15 1.82t.15 1.82q.16.72.43 1.15.26.42.61.6.35.17.72.17.38 0 .73-.17.35-.18.62-.6.26-.43.43-1.15.16-.72.16-1.82Z"/></svg>